<?xml version="1.0" encoding="UTF-8" standalone="no"?>
<svg
   xmlns:dc="http://purl.org/dc/elements/1.1/"
   xmlns:cc="http://creativecommons.org/ns#"
   xmlns:rdf="http://www.w3.org/1999/02/22-rdf-syntax-ns#"
   xmlns:svg="http://www.w3.org/2000/svg"
   xmlns="http://www.w3.org/2000/svg"
   xmlns:sodipodi="http://sodipodi.sourceforge.net/DTD/sodipodi-0.dtd"
   xmlns:inkscape="http://www.inkscape.org/namespaces/inkscape"
   id="Layer"
   enable-background="new 0 0 64 64"
   height="512"
   viewBox="0 0 64 64"
   width="512"
   version="1.1"
   sodipodi:docname="arrow.svg"
   inkscape:version="0.92.4 (5da689c313, 2019-01-14)">
  <metadata
     id="metadata9">
    <rdf:RDF>
      <cc:Work
         rdf:about="">
        <dc:format>image/svg+xml</dc:format>
        <dc:type
           rdf:resource="http://purl.org/dc/dcmitype/StillImage" />
        <dc:title></dc:title>
      </cc:Work>
    </rdf:RDF>
  </metadata>
  <defs
     id="defs7" />
  <sodipodi:namedview
     pagecolor="#ffffff"
     bordercolor="#666666"
     borderopacity="1"
     objecttolerance="10"
     gridtolerance="10"
     guidetolerance="10"
     inkscape:pageopacity="0"
     inkscape:pageshadow="2"
     inkscape:window-width="1366"
     inkscape:window-height="745"
     id="namedview5"
     showgrid="false"
     inkscape:zoom="0.65186406"
     inkscape:cx="233.89024"
     inkscape:cy="214.90833"
     inkscape:window-x="-8"
     inkscape:window-y="-8"
     inkscape:window-maximized="1"
     inkscape:current-layer="Layer" />
  <path
     d="M 59.9971,29.295379 H 8.9087034 L 28.471312,10.662372 c 1.024354,-0.9756976 1.064047,-2.5967396 0.08835,-3.6210936 -0.974417,-1.023074 -2.595458,-1.064048 -3.621093,-0.08835 L 2.5973994,28.233892 c -0.9667344,0.968014 -1.5006791,2.253579 -1.5006791,3.622373 0,1.367513 0.5339447,2.654358 1.5454946,3.664628 L 24.93985,56.758321 c 0.495531,0.472485 1.130631,0.706804 1.765731,0.706804 0.676074,0 1.352148,-0.26633 1.855362,-0.795155 0.975698,-1.024354 0.936004,-2.644114 -0.08835,-3.619811 L 8.828035,34.417151 H 59.9971 c 1.413609,0 2.560887,-1.147278 2.560887,-2.560886 0,-1.413609 -1.147278,-2.560886 -2.560887,-2.560886 z"
     id="path2"
     inkscape:connector-curvature="0"
     style="stroke-width:1.28044295" />
</svg>
