<?xml version="1.0" encoding="UTF-8" standalone="no"?>
<!-- Generator: Adobe Illustrator 19.1.0, SVG Export Plug-In . SVG Version: 6.00 Build 0)  -->

<svg
   xmlns:dc="http://purl.org/dc/elements/1.1/"
   xmlns:cc="http://creativecommons.org/ns#"
   xmlns:rdf="http://www.w3.org/1999/02/22-rdf-syntax-ns#"
   xmlns:svg="http://www.w3.org/2000/svg"
   xmlns="http://www.w3.org/2000/svg"
   xmlns:xlink="http://www.w3.org/1999/xlink"
   xmlns:sodipodi="http://sodipodi.sourceforge.net/DTD/sodipodi-0.dtd"
   xmlns:inkscape="http://www.inkscape.org/namespaces/inkscape"
   version="1.1"
   id="Capa_1"
   x="0px"
   y="0px"
   viewBox="0 0 63 34"
   xml:space="preserve"
   sodipodi:docname="dropdown-arrow.svg"
   width="63"
   height="34"
   inkscape:version="0.92.4 (5da689c313, 2019-01-14)"><metadata
   id="metadata43"><rdf:RDF><cc:Work
       rdf:about=""><dc:format>image/svg+xml</dc:format><dc:type
         rdf:resource="http://purl.org/dc/dcmitype/StillImage" /><dc:title /></cc:Work></rdf:RDF></metadata><defs
   id="defs41">
	

		
		
		
	<linearGradient
   id="linearGradient2331"
   inkscape:collect="always"><stop
     id="stop2327"
     offset="0"
     style="stop-color:#f25797;stop-opacity:1;" /><stop
     id="stop2329"
     offset="1"
     style="stop-color:#f25797;stop-opacity:0;" /></linearGradient><radialGradient
   gradientUnits="userSpaceOnUse"
   gradientTransform="matrix(1,0,0,0.12817123,0,86.860054)"
   r="45.298473"
   fy="99.629715"
   fx="113.58489"
   cy="99.629715"
   cx="113.58489"
   id="radialGradient2333"
   xlink:href="#linearGradient2331"
   inkscape:collect="always" /></defs><sodipodi:namedview
   pagecolor="#ffffff"
   bordercolor="#666666"
   borderopacity="1"
   objecttolerance="10"
   gridtolerance="10"
   guidetolerance="10"
   inkscape:pageopacity="0"
   inkscape:pageshadow="2"
   inkscape:window-width="1366"
   inkscape:window-height="745"
   id="namedview39"
   showgrid="false"
   inkscape:zoom="10.595378"
   inkscape:cx="20.240856"
   inkscape:cy="19.814638"
   inkscape:window-x="-8"
   inkscape:window-y="-8"
   inkscape:window-maximized="1"
   inkscape:current-layer="Capa_1" />
<path
   id="path-1_10_"
   d="m 61.5,33.562661 h -60 c -0.532,0 -1.023,-0.172754 -1.292,-0.454712 -0.27,-0.282576 -0.278,-0.631168 -0.021,-0.918063 L 27.039,16.64257 c 0.02,-0.02283 0.043,-0.04566 0.066,-0.06725 0.998,-0.91868 2.66,-1.46779 4.447,-1.46779 1.748,0 3.371,0.533069 4.341,1.427069 0.025,0.02221 0.047,0.04442 0.068,0.06787 l 26.852,15.588036 c 0.256,0.286895 0.248,0.635487 -0.021,0.917446 -0.271,0.281956 -0.762,0.45471 -1.292,0.45471 z"
   inkscape:connector-curvature="0"
   style="fill:#6e7e85;fill-opacity:1;stroke-width:0.78547919"
   sodipodi:nodetypes="ssccccsccccs" />
<g
   id="g8"
   transform="translate(0,-29)">
</g>
<g
   id="g10"
   transform="translate(0,-29)">
</g>
<g
   id="g12"
   transform="translate(0,-29)">
</g>
<g
   id="g14"
   transform="translate(0,-29)">
</g>
<g
   id="g16"
   transform="translate(0,-29)">
</g>
<g
   id="g18"
   transform="translate(0,-29)">
</g>
<g
   id="g20"
   transform="translate(0,-29)">
</g>
<g
   id="g22"
   transform="translate(0,-29)">
</g>
<g
   id="g24"
   transform="translate(0,-29)">
</g>
<g
   id="g26"
   transform="translate(0,-29)">
</g>
<g
   id="g28"
   transform="translate(0,-29)">
</g>
<g
   id="g30"
   transform="translate(0,-29)">
</g>
<g
   id="g32"
   transform="translate(0,-29)">
</g>
<g
   id="g34"
   transform="translate(0,-29)">
</g>
<g
   id="g36"
   transform="translate(0,-29)">
</g>
</svg>