<?xml version="1.0" encoding="UTF-8" standalone="no"?>
<!-- Created with Inkscape (http://www.inkscape.org/) -->

<svg
   xmlns:dc="http://purl.org/dc/elements/1.1/"
   xmlns:cc="http://creativecommons.org/ns#"
   xmlns:rdf="http://www.w3.org/1999/02/22-rdf-syntax-ns#"
   xmlns:svg="http://www.w3.org/2000/svg"
   xmlns="http://www.w3.org/2000/svg"
   xmlns:xlink="http://www.w3.org/1999/xlink"
   xmlns:sodipodi="http://sodipodi.sourceforge.net/DTD/sodipodi-0.dtd"
   xmlns:inkscape="http://www.inkscape.org/namespaces/inkscape"
   width="653.70081"
   height="496.70078"
   viewBox="0 0 172.9588 131.41957"
   version="1.1"
   id="svg8"
   inkscape:version="0.92.4 (5da689c313, 2019-01-14)"
   sodipodi:docname="MedistoreLogo.svg">
  <defs
     id="defs2">
    <linearGradient
       inkscape:collect="always"
       id="linearGradient2331">
      <stop
         style="stop-color:#f25797;stop-opacity:1;"
         offset="0"
         id="stop2327" />
      <stop
         style="stop-color:#f25797;stop-opacity:0;"
         offset="1"
         id="stop2329" />
    </linearGradient>
    <radialGradient
       inkscape:collect="always"
       xlink:href="#linearGradient2331"
       id="radialGradient2333"
       cx="113.58489"
       cy="99.629715"
       fx="113.58489"
       fy="99.629715"
       r="45.298473"
       gradientTransform="matrix(1,0,0,0.12817123,0,86.860054)"
       gradientUnits="userSpaceOnUse" />
  </defs>
  <sodipodi:namedview
     id="base"
     pagecolor="#ffffff"
     bordercolor="#666666"
     borderopacity="1.0"
     inkscape:pageopacity="0.0"
     inkscape:pageshadow="2"
     inkscape:zoom="0.98994949"
     inkscape:cx="290.13152"
     inkscape:cy="279.94954"
     inkscape:document-units="mm"
     inkscape:current-layer="layer1"
     showgrid="false"
     inkscape:window-width="1366"
     inkscape:window-height="745"
     inkscape:window-x="-8"
     inkscape:window-y="-8"
     inkscape:window-maximized="1"
     units="px" />
  <metadata
     id="metadata5">
    <rdf:RDF>
      <cc:Work
         rdf:about="">
        <dc:format>image/svg+xml</dc:format>
        <dc:type
           rdf:resource="http://purl.org/dc/dcmitype/StillImage" />
        <dc:title></dc:title>
      </cc:Work>
    </rdf:RDF>
  </metadata>
  <g
     inkscape:label="Layer 1"
     inkscape:groupmode="layer"
     id="layer1"
     transform="translate(0,-165.58385)">
    <flowRoot
       xml:space="preserve"
       id="flowRoot845"
       style="font-style:normal;font-weight:normal;font-size:40px;line-height:1.25;font-family:sans-serif;letter-spacing:0px;word-spacing:0px;fill:#000000;fill-opacity:1;stroke:none"
       transform="scale(0.26458333)"><flowRegion
         id="flowRegion847"><rect
           id="rect849"
           width="354.56354"
           height="43.436558"
           x="248.49753"
           y="378.03726" /></flowRegion><flowPara
         id="flowPara851">MeMEDISTORE</flowPara></flowRoot>    <flowRoot
       xml:space="preserve"
       id="flowRoot853"
       style="font-style:normal;font-weight:normal;font-size:40px;line-height:1.25;font-family:sans-serif;letter-spacing:0px;word-spacing:0px;fill:#000000;fill-opacity:1;stroke:none"><flowRegion
         id="flowRegion855"><rect
           id="rect857"
           width="17.172594"
           height="111.11678"
           x="435.37573"
           y="401.27078" /></flowRegion><flowPara
         id="flowPara859" /></flowRoot>    <g
       id="g835"
       transform="matrix(1.7192996,0,0,1.7192996,-106.53879,112.01536)">
      <path
         sodipodi:nodetypes="ccczccsccsccsccsccczc"
         inkscape:connector-curvature="0"
         id="path21"
         d="m 95.068973,33.252222 c -0.687642,0.0042 -1.708909,1.264112 -1.708909,1.264112 L 64.104223,85.233972 c 0,0 -0.700786,2.760121 -0.09317,3.897151 0.607613,1.13703 3.239919,2.055449 3.239919,2.055449 l 21.147067,-0.03095 c 0,0 2.317975,-0.600157 2.834671,-1.543925 0.50747,-0.926917 -0.22252,-3.162402 -0.22252,-3.162402 L 78.703164,65.86364 c 0,0 -0.385855,-1.524128 -0.09083,-2.193996 0.210803,-0.478638 1.200348,-1.010422 1.200348,-1.010422 l 13.265786,-0.0597 c 0,0 0.958597,0.301108 1.394599,0.543694 0.388488,0.21615 1.066781,0.800481 1.066781,0.800481 l 15.553912,26.62441 c 0,0 0.77395,0.716282 1.25968,0.734582 0.52925,0.01994 1.42888,-0.694857 1.42888,-0.694857 L 121.54083,77.304447 96.709489,34.224692 c 0,0 -0.952866,-0.976692 -1.640509,-0.97247 z"
         style="fill:#abff4f;fill-opacity:1;stroke:#000000;stroke-width:0.66500002;stroke-linecap:butt;stroke-linejoin:miter;stroke-miterlimit:4;stroke-dasharray:none;stroke-opacity:1" />
      <path
         style="fill:#f25797;fill-opacity:1;stroke:#000000;stroke-width:0.66500002;stroke-linecap:butt;stroke-linejoin:miter;stroke-miterlimit:4;stroke-dasharray:none;stroke-opacity:1"
         d="m 112.44801,61.534501 15.71858,-27.270084 c 0,0 0.95287,-0.976692 1.64051,-0.97247 h 4e-5 c 0.68764,0.0042 1.70891,1.264112 1.70891,1.264112 l 29.25584,50.717638 c 0,0 0.70078,2.760121 0.0932,3.897151 -0.60761,1.13703 -3.23992,2.055449 -3.23992,2.055449 l -21.14707,-0.03095 c 0,0 -2.31797,-0.600157 -2.83467,-1.543925 -0.50747,-0.926917 0.22252,-3.162402 0.22252,-3.162402 l 12.307,-20.585655 c 0,0 0.38585,-1.524128 0.0908,-2.193996 -0.21081,-0.478638 -1.20035,-1.010422 -1.20035,-1.010422 l -13.26579,-0.0597 c 0,0 -0.95859,0.301108 -1.3946,0.543694 -0.38848,0.21615 -1.06678,0.800481 -1.06678,0.800481 l -7.81018,13.36908 z"
         id="path831"
         inkscape:connector-curvature="0"
         sodipodi:nodetypes="cczccczccsccsccsccc" />
      <text
         id="text863"
         y="105.20359"
         x="66.78907"
         style="font-style:normal;font-weight:normal;font-size:15.33282852px;line-height:1.25;font-family:sans-serif;letter-spacing:0px;word-spacing:0px;opacity:1;fill:#f25797;fill-opacity:1;stroke:none;stroke-width:0.38332069"
         xml:space="preserve"><tspan
           style="fill:#f25797;fill-opacity:1;stroke-width:0.38332069"
           y="105.20359"
           x="66.78907"
           id="tspan861"
           sodipodi:role="line">MEDISTORE</tspan></text>
    </g>
  </g>
</svg>
