<?xml version="1.0" encoding="UTF-8" standalone="no"?>
<!-- Created with Inkscape (http://www.inkscape.org/) -->

<svg
   xmlns:dc="http://purl.org/dc/elements/1.1/"
   xmlns:cc="http://creativecommons.org/ns#"
   xmlns:rdf="http://www.w3.org/1999/02/22-rdf-syntax-ns#"
   xmlns:svg="http://www.w3.org/2000/svg"
   xmlns="http://www.w3.org/2000/svg"
   xmlns:xlink="http://www.w3.org/1999/xlink"
   xmlns:sodipodi="http://sodipodi.sourceforge.net/DTD/sodipodi-0.dtd"
   xmlns:inkscape="http://www.inkscape.org/namespaces/inkscape"
   width="653.70081"
   height="496.70078"
   viewBox="0 0 172.9588 131.41957"
   version="1.1"
   id="svg8"
   inkscape:version="0.92.4 (5da689c313, 2019-01-14)"
   sodipodi:docname="logo.svg">
  <defs
     id="defs2">
    <linearGradient
       inkscape:collect="always"
       id="linearGradient2331">
      <stop
         style="stop-color:#f25797;stop-opacity:1;"
         offset="0"
         id="stop2327" />
      <stop
         style="stop-color:#f25797;stop-opacity:0;"
         offset="1"
         id="stop2329" />
    </linearGradient>
    <radialGradient
       inkscape:collect="always"
       xlink:href="#linearGradient2331"
       id="radialGradient2333"
       cx="113.58489"
       cy="99.629715"
       fx="113.58489"
       fy="99.629715"
       r="45.298473"
       gradientTransform="matrix(1,0,0,0.12817123,0,86.860054)"
       gradientUnits="userSpaceOnUse" />
  </defs>
  <sodipodi:namedview
     id="base"
     pagecolor="#ffffff"
     bordercolor="#666666"
     borderopacity="1.0"
     inkscape:pageopacity="0.0"
     inkscape:pageshadow="2"
     inkscape:zoom="0.98994949"
     inkscape:cx="272.45385"
     inkscape:cy="279.94954"
     inkscape:document-units="mm"
     inkscape:current-layer="layer1"
     showgrid="false"
     inkscape:window-width="1366"
     inkscape:window-height="745"
     inkscape:window-x="-8"
     inkscape:window-y="-8"
     inkscape:window-maximized="1"
     units="px" />
  <metadata
     id="metadata5">
    <rdf:RDF>
      <cc:Work
         rdf:about="">
        <dc:format>image/svg+xml</dc:format>
        <dc:type
           rdf:resource="http://purl.org/dc/dcmitype/StillImage" />
        <dc:title />
      </cc:Work>
    </rdf:RDF>
  </metadata>
  <g
     inkscape:label="Layer 1"
     inkscape:groupmode="layer"
     id="layer1"
     transform="translate(0,-165.58385)">
    <flowRoot
       xml:space="preserve"
       id="flowRoot845"
       style="font-style:normal;font-weight:normal;font-size:40px;line-height:1.25;font-family:sans-serif;letter-spacing:0px;word-spacing:0px;fill:#000000;fill-opacity:1;stroke:none"
       transform="scale(0.26458333)"><flowRegion
         id="flowRegion847"><rect
           id="rect849"
           width="354.56354"
           height="43.436558"
           x="248.49753"
           y="378.03726" /></flowRegion><flowPara
         id="flowPara851">MeMEDISTORE</flowPara></flowRoot>    <flowRoot
       xml:space="preserve"
       id="flowRoot853"
       style="font-style:normal;font-weight:normal;font-size:40px;line-height:1.25;font-family:sans-serif;letter-spacing:0px;word-spacing:0px;fill:#000000;fill-opacity:1;stroke:none"><flowRegion
         id="flowRegion855"><rect
           id="rect857"
           width="17.172594"
           height="111.11678"
           x="435.37573"
           y="401.27078" /></flowRegion><flowPara
         id="flowPara859" /></flowRoot>    <path
       style="fill:#abff4f;fill-opacity:1;stroke:#000000;stroke-width:1.14333427;stroke-linecap:butt;stroke-linejoin:miter;stroke-miterlimit:4;stroke-dasharray:none;stroke-opacity:1"
       d="m 56.913257,169.18589 c -1.182262,0.007 -2.938126,2.17339 -2.938126,2.17339 L 3.675575,258.55809 c 0,0 -1.2048611,4.74548 -0.1601872,6.70037 1.0446688,1.9549 5.5703915,3.53394 5.5703915,3.53394 l 36.3581437,-0.0532 c 0,0 3.985294,-1.03185 4.873649,-2.65447 0.872493,-1.59364 -0.382579,-5.43711 -0.382579,-5.43711 L 28.775528,225.25469 c 0,0 -0.6634,-2.62043 -0.156164,-3.77214 0.362434,-0.82292 2.063758,-1.73721 2.063758,-1.73721 l 22.807861,-0.10265 c 0,0 1.648115,0.5177 2.397733,0.93478 0.667928,0.37162 1.834116,1.37626 1.834116,1.37626 l 26.741835,45.77534 c 0,0 1.330652,1.2315 2.165767,1.26297 0.90994,0.0343 2.456673,-1.19467 2.456673,-1.19467 l 13.339203,-22.87251 -42.692514,-74.067 c 0,0 -1.638262,-1.67923 -2.820527,-1.67197 z"
       id="path21"
       inkscape:connector-curvature="0"
       sodipodi:nodetypes="ccczccsccsccsccsccczc" />
    <path
       sodipodi:nodetypes="cczccczccsccsccsccc"
       inkscape:connector-curvature="0"
       id="path831"
       d="m 86.793029,217.8116 27.024951,-46.88544 c 0,0 1.63827,-1.67923 2.82053,-1.67197 h 6e-5 c 1.18226,0.007 2.93813,2.17339 2.93813,2.17339 l 50.29956,87.19881 c 0,0 1.20485,4.74548 0.16023,6.70037 -1.04466,1.9549 -5.57039,3.53394 -5.57039,3.53394 l -36.35815,-0.0532 c 0,0 -3.98528,-1.03185 -4.87364,-2.65447 -0.8725,-1.59364 0.38257,-5.43711 0.38257,-5.43711 l 21.15942,-35.39291 c 0,0 0.6634,-2.62043 0.15612,-3.77214 -0.36245,-0.82292 -2.06376,-1.73722 -2.06376,-1.73722 l -22.80787,-0.10264 c 0,0 -1.64811,0.5177 -2.39774,0.93478 -0.66791,0.37162 -1.83411,1.37626 -1.83411,1.37626 l -13.42804,22.98546 z"
       style="fill:#f25797;fill-opacity:1;stroke:#000000;stroke-width:1.14333427;stroke-linecap:butt;stroke-linejoin:miter;stroke-miterlimit:4;stroke-dasharray:none;stroke-opacity:1" />
    <text
       xml:space="preserve"
       style="font-style:normal;font-weight:normal;font-size:26.36172676px;line-height:1.25;font-family:sans-serif;letter-spacing:0px;word-spacing:0px;opacity:1;fill:#f25797;fill-opacity:1;stroke:none;stroke-width:0.65904313"
       x="12.567971"
       y="290.75366"
       id="text863"><tspan
         sodipodi:role="line"
         id="tspan861"
         x="12.567971"
         y="290.75366"
         style="fill:#f25797;fill-opacity:1;stroke-width:0.65904313">Mongostore</tspan></text>
  </g>
</svg>
